<svg width="164" height="64" viewBox="0 0 164 64" fill="none" xmlns="http://www.w3.org/2000/svg">
<path d="M94.6582 21.0293C94.6582 23.5371 94.2363 25.7285 93.3926 27.6035C92.5488 29.4668 91.3535 30.8906 89.8066 31.875C88.2598 32.8594 86.4551 33.3516 84.3926 33.3516C82.377 33.3516 80.5898 32.8594 79.0312 31.875C77.4727 30.8789 76.2598 29.4668 75.3926 27.6387C74.5371 25.7988 74.0977 23.6719 74.0742 21.2578V19.4121C74.0742 16.9512 74.502 14.7773 75.3574 12.8906C76.2129 11.0039 77.4199 9.5625 78.9785 8.56641C80.5488 7.55859 82.3418 7.05469 84.3574 7.05469C86.4082 7.05469 88.2129 7.55273 89.7715 8.54883C91.3418 9.5332 92.5488 10.9688 93.3926 12.8555C94.2363 14.7305 94.6582 16.916 94.6582 19.4121V21.0293ZM91.3008 19.377C91.3008 16.3418 90.6914 14.0156 89.4727 12.3984C88.2539 10.7695 86.5488 9.95508 84.3574 9.95508C82.2246 9.95508 80.543 10.7695 79.3125 12.3984C78.0938 14.0156 77.4668 16.2656 77.4316 19.1484V21.0293C77.4316 23.9707 78.0469 26.2852 79.2773 27.9727C80.5195 29.6484 82.2246 30.4863 84.3926 30.4863C86.5723 30.4863 88.2598 29.6953 89.4551 28.1133C90.6504 26.5195 91.2656 24.2402 91.3008 21.2754V19.377ZM103.096 22.9805V33H99.7207V7.40625H109.16C111.961 7.40625 114.152 8.12109 115.734 9.55078C117.328 10.9805 118.125 12.873 118.125 15.2285C118.125 17.7129 117.346 19.6289 115.787 20.9766C114.24 22.3125 112.02 22.9805 109.125 22.9805H103.096ZM103.096 20.2207H109.16C110.965 20.2207 112.348 19.7988 113.309 18.9551C114.27 18.0996 114.75 16.8691 114.75 15.2637C114.75 13.7402 114.27 12.5215 113.309 11.6074C112.348 10.6934 111.029 10.2188 109.354 10.1836H103.096V20.2207ZM125.807 22.9805V33H122.432V7.40625H131.871C134.672 7.40625 136.863 8.12109 138.445 9.55078C140.039 10.9805 140.836 12.873 140.836 15.2285C140.836 17.7129 140.057 19.6289 138.498 20.9766C136.951 22.3125 134.73 22.9805 131.836 22.9805H125.807ZM125.807 20.2207H131.871C133.676 20.2207 135.059 19.7988 136.02 18.9551C136.98 18.0996 137.461 16.8691 137.461 15.2637C137.461 13.7402 136.98 12.5215 136.02 11.6074C135.059 10.6934 133.74 10.2188 132.064 10.1836H125.807V20.2207ZM156.85 26.3203H146.127L143.719 33H140.238L150.012 7.40625H152.965L162.756 33H159.293L156.85 26.3203ZM147.146 23.543H155.848L151.488 11.5723L147.146 23.543Z" fill="#8A8D8F"/>
<path d="M93.3926 27.6035L93.8481 27.8098L93.8485 27.8087L93.3926 27.6035ZM79.0312 31.875L78.762 32.2963L78.7643 32.2977L79.0312 31.875ZM75.3926 27.6387L74.9392 27.8495L74.9408 27.853L75.3926 27.6387ZM74.0742 21.2578H73.5742V21.2627L74.0742 21.2578ZM78.9785 8.56641L79.2478 8.98772L79.2486 8.9872L78.9785 8.56641ZM89.7715 8.54883L89.5022 8.97015L89.5059 8.97247L89.7715 8.54883ZM93.3926 12.8555L92.9361 13.0596L92.9366 13.0607L93.3926 12.8555ZM89.4727 12.3984L89.0723 12.698L89.0734 12.6994L89.4727 12.3984ZM79.3125 12.3984L78.9135 12.0971L78.9132 12.0975L79.3125 12.3984ZM77.4316 19.1484L76.9316 19.1423V19.1484H77.4316ZM79.2773 27.9727L78.8733 28.2673L78.8757 28.2704L79.2773 27.9727ZM89.4551 28.1133L89.854 28.4147L89.8551 28.4133L89.4551 28.1133ZM91.3008 21.2754L91.8008 21.2813V21.2754H91.3008ZM94.1582 21.0293C94.1582 23.4816 93.7457 25.6004 92.9366 27.3983L93.8485 27.8087C94.727 25.8566 95.1582 23.5927 95.1582 21.0293H94.1582ZM92.9371 27.3973C92.1286 29.1826 90.9938 30.5269 89.5382 31.4532L90.0751 32.2968C91.7132 31.2544 92.969 29.751 93.8481 27.8098L92.9371 27.3973ZM89.5382 31.4532C88.0813 32.3803 86.3722 32.8516 84.3926 32.8516V33.8516C86.5379 33.8516 88.4382 33.3384 90.0751 32.2968L89.5382 31.4532ZM84.3926 32.8516C82.4623 32.8516 80.7695 32.3815 79.2982 31.4523L78.7643 32.2977C80.4102 33.3373 82.2916 33.8516 84.3926 33.8516V32.8516ZM79.3005 31.4537C77.8283 30.5128 76.6752 29.176 75.8443 27.4244L74.9408 27.853C75.8443 29.7576 77.117 31.245 78.762 32.2963L79.3005 31.4537ZM75.846 27.4279C75.0257 25.6636 74.5971 23.6092 74.5742 21.253L73.5742 21.2627C73.5982 23.7346 74.0486 25.934 74.9392 27.8495L75.846 27.4279ZM74.5742 21.2578V19.4121H73.5742V21.2578H74.5742ZM74.5742 19.4121C74.5742 17.0092 74.9917 14.9079 75.8128 13.0971L74.902 12.6841C74.0122 14.6468 73.5742 16.8932 73.5742 19.4121H74.5742ZM75.8128 13.0971C76.6333 11.2876 77.7802 9.92561 79.2478 8.98771L78.7093 8.1451C77.0596 9.19939 75.7925 10.7202 74.902 12.6841L75.8128 13.0971ZM79.2486 8.9872C80.7318 8.03527 82.4295 7.55469 84.3574 7.55469V6.55469C82.2541 6.55469 80.3658 7.08192 78.7085 8.14561L79.2486 8.9872ZM84.3574 7.55469C86.3235 7.55469 88.0326 8.03092 89.5022 8.97014L90.0407 8.12752C88.3932 7.07455 86.4929 6.55469 84.3574 6.55469V7.55469ZM89.5059 8.97247C90.9827 9.89825 92.128 11.2525 92.9361 13.0596L93.849 12.6513C92.9696 10.685 91.7008 9.16816 90.0371 8.12518L89.5059 8.97247ZM92.9366 13.0607C93.7458 14.8589 94.1582 16.9719 94.1582 19.4121H95.1582C95.1582 16.8601 94.7268 14.6021 93.8485 12.6503L92.9366 13.0607ZM94.1582 19.4121V21.0293H95.1582V19.4121H94.1582ZM91.8008 19.377C91.8008 16.2847 91.1814 13.8351 89.872 12.0975L89.0734 12.6994C90.2014 14.1961 90.8008 16.3989 90.8008 19.377H91.8008ZM89.873 12.0989C88.5517 10.3329 86.6923 9.45508 84.3574 9.45508V10.4551C86.4054 10.4551 87.9561 11.2061 89.0723 12.698L89.873 12.0989ZM84.3574 9.45508C82.076 9.45508 80.2433 10.3367 78.9135 12.0971L79.7115 12.6998C80.8426 11.2024 82.3732 10.4551 84.3574 10.4551V9.45508ZM78.9132 12.0975C77.6083 13.829 76.9676 16.1967 76.9317 19.1423L77.9316 19.1545C77.966 16.3346 78.5792 14.2022 79.7118 12.6994L78.9132 12.0975ZM76.9316 19.1484V21.0293H77.9316V19.1484H76.9316ZM76.9316 21.0293C76.9316 24.0346 77.5596 26.4656 78.8733 28.2672L79.6813 27.6781C78.5341 26.1047 77.9316 23.9068 77.9316 21.0293H76.9316ZM78.8757 28.2704C80.2164 30.0792 82.0736 30.9863 84.3926 30.9863V29.9863C82.3757 29.9863 80.8226 29.2177 79.679 27.6749L78.8757 28.2704ZM84.3926 30.9863C86.7111 30.9863 88.5539 30.1355 89.854 28.4147L89.0561 27.8119C87.9656 29.2552 86.4335 29.9863 84.3926 29.9863V30.9863ZM89.8551 28.4133C91.1384 26.7022 91.7649 24.303 91.8007 21.2813L90.8008 21.2695C90.7663 24.1774 90.1624 26.3368 89.0551 27.8133L89.8551 28.4133ZM91.8008 21.2754V19.377H90.8008V21.2754H91.8008ZM103.096 22.9805V22.4805H102.596V22.9805H103.096ZM103.096 33V33.5H103.596V33H103.096ZM99.7207 33H99.2207V33.5H99.7207V33ZM99.7207 7.40625V6.90625H99.2207V7.40625H99.7207ZM115.734 9.55078L115.399 9.92175L115.4 9.92297L115.734 9.55078ZM115.787 20.9766L116.114 21.355V21.3548L115.787 20.9766ZM103.096 20.2207H102.596V20.7207H103.096V20.2207ZM113.309 18.9551L113.639 19.3308L113.641 19.3285L113.309 18.9551ZM109.354 10.1836L109.364 9.68359H109.354V10.1836ZM103.096 10.1836V9.68359H102.596V10.1836H103.096ZM102.596 22.9805V33H103.596V22.9805H102.596ZM103.096 32.5H99.7207V33.5H103.096V32.5ZM100.221 33V7.40625H99.2207V33H100.221ZM99.7207 7.90625H109.16V6.90625H99.7207V7.90625ZM109.16 7.90625C111.877 7.90625 113.935 8.59837 115.399 9.92174L116.07 9.17982C114.37 7.64382 112.045 6.90625 109.16 6.90625V7.90625ZM115.4 9.92297C116.877 11.2477 117.625 12.9992 117.625 15.2285H118.625C118.625 12.7469 117.779 10.7132 116.068 9.17859L115.4 9.92297ZM117.625 15.2285C117.625 17.6004 116.886 19.3651 115.46 20.5983L116.114 21.3548C117.805 19.8927 118.625 17.8254 118.625 15.2285H117.625ZM115.46 20.5982C114.036 21.8285 111.949 22.4805 109.125 22.4805V23.4805C112.09 23.4805 114.445 22.7965 116.114 21.355L115.46 20.5982ZM109.125 22.4805H103.096V23.4805H109.125V22.4805ZM103.096 20.7207H109.16V19.7207H103.096V20.7207ZM109.16 20.7207C111.037 20.7207 112.555 20.2822 113.638 19.3308L112.979 18.5794C112.14 19.3154 110.893 19.7207 109.16 19.7207V20.7207ZM113.641 19.3285C114.734 18.3555 115.25 16.9737 115.25 15.2637H114.25C114.25 16.7645 113.805 17.8437 112.976 18.5816L113.641 19.3285ZM115.25 15.2637C115.25 13.6256 114.728 12.2679 113.653 11.2451L112.964 11.9697C113.811 12.7751 114.25 13.8549 114.25 15.2637H115.25ZM113.653 11.2451C112.58 10.2242 111.13 9.72076 109.364 9.6837L109.343 10.6835C110.928 10.7167 112.115 11.1625 112.964 11.9697L113.653 11.2451ZM109.354 9.68359H103.096V10.6836H109.354V9.68359ZM102.596 10.1836V20.2207H103.596V10.1836H102.596ZM125.807 22.9805V22.4805H125.307V22.9805H125.807ZM125.807 33V33.5H126.307V33H125.807ZM122.432 33H121.932V33.5H122.432V33ZM122.432 7.40625V6.90625H121.932V7.40625H122.432ZM138.445 9.55078L138.11 9.92175L138.111 9.92297L138.445 9.55078ZM138.498 20.9766L138.825 21.355V21.3548L138.498 20.9766ZM125.807 20.2207H125.307V20.7207H125.807V20.2207ZM136.02 18.9551L136.349 19.3308L136.352 19.3285L136.02 18.9551ZM132.064 10.1836L132.075 9.68359H132.064V10.1836ZM125.807 10.1836V9.68359H125.307V10.1836H125.807ZM125.307 22.9805V33H126.307V22.9805H125.307ZM125.807 32.5H122.432V33.5H125.807V32.5ZM122.932 33V7.40625H121.932V33H122.932ZM122.432 7.90625H131.871V6.90625H122.432V7.90625ZM131.871 7.90625C134.588 7.90625 136.646 8.59837 138.11 9.92174L138.781 9.17982C137.081 7.64382 134.756 6.90625 131.871 6.90625V7.90625ZM138.111 9.92297C139.588 11.2477 140.336 12.9992 140.336 15.2285H141.336C141.336 12.7469 140.49 10.7132 138.779 9.17859L138.111 9.92297ZM140.336 15.2285C140.336 17.6004 139.597 19.3651 138.171 20.5983L138.825 21.3548C140.516 19.8927 141.336 17.8254 141.336 15.2285H140.336ZM138.171 20.5982C136.747 21.8285 134.66 22.4805 131.836 22.4805V23.4805C134.801 23.4805 137.156 22.7965 138.825 21.355L138.171 20.5982ZM131.836 22.4805H125.807V23.4805H131.836V22.4805ZM125.807 20.7207H131.871V19.7207H125.807V20.7207ZM131.871 20.7207C133.748 20.7207 135.266 20.2822 136.349 19.3308L135.69 18.5794C134.851 19.3154 133.604 19.7207 131.871 19.7207V20.7207ZM136.352 19.3285C137.445 18.3555 137.961 16.9737 137.961 15.2637H136.961C136.961 16.7645 136.516 17.8437 135.687 18.5816L136.352 19.3285ZM137.961 15.2637C137.961 13.6256 137.439 12.2679 136.364 11.2451L135.675 11.9697C136.522 12.7751 136.961 13.8549 136.961 15.2637H137.961ZM136.364 11.2451C135.291 10.2242 133.841 9.72076 132.075 9.6837L132.054 10.6835C133.639 10.7167 134.826 11.1625 135.675 11.9697L136.364 11.2451ZM132.064 9.68359H125.807V10.6836H132.064V9.68359ZM125.307 10.1836V20.2207H126.307V10.1836H125.307ZM156.85 26.3203L157.319 26.1485L157.199 25.8203H156.85V26.3203ZM146.127 26.3203V25.8203H145.776L145.657 26.1507L146.127 26.3203ZM143.719 33V33.5H144.07L144.189 33.1696L143.719 33ZM140.238 33L139.771 32.8216L139.512 33.5H140.238V33ZM150.012 7.40625V6.90625H149.667L149.545 7.22788L150.012 7.40625ZM152.965 7.40625L153.432 7.2276L153.309 6.90625H152.965V7.40625ZM162.756 33V33.5H163.482L163.223 32.8213L162.756 33ZM159.293 33L158.823 33.1718L158.943 33.5H159.293V33ZM147.146 23.543L146.676 23.3725L146.433 24.043H147.146V23.543ZM155.848 23.543V24.043H156.562L156.317 23.3719L155.848 23.543ZM151.488 11.5723L151.958 11.4012L151.487 10.1085L151.018 11.4018L151.488 11.5723ZM156.85 25.8203H146.127V26.8203H156.85V25.8203ZM145.657 26.1507L143.248 32.8304L144.189 33.1696L146.597 26.4899L145.657 26.1507ZM143.719 32.5H140.238V33.5H143.719V32.5ZM140.705 33.1784L150.479 7.58462L149.545 7.22788L139.771 32.8216L140.705 33.1784ZM150.012 7.90625H152.965V6.90625H150.012V7.90625ZM152.498 7.5849L162.289 33.1787L163.223 32.8213L153.432 7.2276L152.498 7.5849ZM162.756 32.5H159.293V33.5H162.756V32.5ZM159.763 32.8282L157.319 26.1485L156.38 26.4921L158.823 33.1718L159.763 32.8282ZM147.146 24.043H155.848V23.043H147.146V24.043ZM156.317 23.3719L151.958 11.4012L151.018 11.7434L155.378 23.7141L156.317 23.3719ZM151.018 11.4018L146.676 23.3725L147.617 23.7135L151.958 11.7427L151.018 11.4018Z" fill="#8A8D8F"/>
<path d="M86.0078 49.3945C84.0781 48.8398 82.6719 48.1602 81.7891 47.3555C80.9141 46.543 80.4766 45.543 80.4766 44.3555C80.4766 43.0117 81.0117 41.9023 82.082 41.0273C83.1602 40.1445 84.5586 39.7031 86.2773 39.7031C87.4492 39.7031 88.4922 39.9297 89.4062 40.3828C90.3281 40.8359 91.0391 41.4609 91.5391 42.2578C92.0469 43.0547 92.3008 43.9258 92.3008 44.8711H90.0391C90.0391 43.8398 89.7109 43.0312 89.0547 42.4453C88.3984 41.8516 87.4727 41.5547 86.2773 41.5547C85.168 41.5547 84.3008 41.8008 83.6758 42.293C83.0586 42.7773 82.75 43.4531 82.75 44.3203C82.75 45.0156 83.043 45.6055 83.6289 46.0898C84.2227 46.5664 85.2266 47.0039 86.6406 47.4023C88.0625 47.8008 89.1719 48.2422 89.9688 48.7266C90.7734 49.2031 91.3672 49.7617 91.75 50.4023C92.1406 51.043 92.3359 51.7969 92.3359 52.6641C92.3359 54.0469 91.7969 55.1562 90.7188 55.9922C89.6406 56.8203 88.1992 57.2344 86.3945 57.2344C85.2227 57.2344 84.1289 57.0117 83.1133 56.5664C82.0977 56.1133 81.3125 55.4961 80.7578 54.7148C80.2109 53.9336 79.9375 53.0469 79.9375 52.0547H82.1992C82.1992 53.0859 82.5781 53.9023 83.3359 54.5039C84.1016 55.0977 85.1211 55.3945 86.3945 55.3945C87.582 55.3945 88.4922 55.1523 89.125 54.668C89.7578 54.1836 90.0742 53.5234 90.0742 52.6875C90.0742 51.8516 89.7812 51.207 89.1953 50.7539C88.6094 50.293 87.5469 49.8398 86.0078 49.3945ZM107.242 39.9375V51.5391C107.234 53.1484 106.727 54.4648 105.719 55.4883C104.719 56.5117 103.359 57.0859 101.641 57.2109L101.043 57.2344C99.1758 57.2344 97.6875 56.7305 96.5781 55.7227C95.4688 54.7148 94.9062 53.3281 94.8906 51.5625V39.9375H97.1172V51.4922C97.1172 52.7266 97.457 53.6875 98.1367 54.375C98.8164 55.0547 99.7852 55.3945 101.043 55.3945C102.316 55.3945 103.289 55.0547 103.961 54.375C104.641 53.6953 104.98 52.7383 104.98 51.5039V39.9375H107.242ZM113.043 50.3203V57H110.793V39.9375H117.086C118.953 39.9375 120.414 40.4141 121.469 41.3672C122.531 42.3203 123.062 43.582 123.062 45.1523C123.062 46.8086 122.543 48.0859 121.504 48.9844C120.473 49.875 118.992 50.3203 117.062 50.3203H113.043ZM113.043 48.4805H117.086C118.289 48.4805 119.211 48.1992 119.852 47.6367C120.492 47.0664 120.812 46.2461 120.812 45.1758C120.812 44.1602 120.492 43.3477 119.852 42.7383C119.211 42.1289 118.332 41.8125 117.215 41.7891H113.043V48.4805ZM128.184 50.3203V57H125.934V39.9375H132.227C134.094 39.9375 135.555 40.4141 136.609 41.3672C137.672 42.3203 138.203 43.582 138.203 45.1523C138.203 46.8086 137.684 48.0859 136.645 48.9844C135.613 49.875 134.133 50.3203 132.203 50.3203H128.184ZM128.184 48.4805H132.227C133.43 48.4805 134.352 48.1992 134.992 47.6367C135.633 47.0664 135.953 46.2461 135.953 45.1758C135.953 44.1602 135.633 43.3477 134.992 42.7383C134.352 42.1289 133.473 41.8125 132.355 41.7891H128.184V48.4805ZM146.102 49.3945C144.172 48.8398 142.766 48.1602 141.883 47.3555C141.008 46.543 140.57 45.543 140.57 44.3555C140.57 43.0117 141.105 41.9023 142.176 41.0273C143.254 40.1445 144.652 39.7031 146.371 39.7031C147.543 39.7031 148.586 39.9297 149.5 40.3828C150.422 40.8359 151.133 41.4609 151.633 42.2578C152.141 43.0547 152.395 43.9258 152.395 44.8711H150.133C150.133 43.8398 149.805 43.0312 149.148 42.4453C148.492 41.8516 147.566 41.5547 146.371 41.5547C145.262 41.5547 144.395 41.8008 143.77 42.293C143.152 42.7773 142.844 43.4531 142.844 44.3203C142.844 45.0156 143.137 45.6055 143.723 46.0898C144.316 46.5664 145.32 47.0039 146.734 47.4023C148.156 47.8008 149.266 48.2422 150.062 48.7266C150.867 49.2031 151.461 49.7617 151.844 50.4023C152.234 51.043 152.43 51.7969 152.43 52.6641C152.43 54.0469 151.891 55.1562 150.812 55.9922C149.734 56.8203 148.293 57.2344 146.488 57.2344C145.316 57.2344 144.223 57.0117 143.207 56.5664C142.191 56.1133 141.406 55.4961 140.852 54.7148C140.305 53.9336 140.031 53.0469 140.031 52.0547H142.293C142.293 53.0859 142.672 53.9023 143.43 54.5039C144.195 55.0977 145.215 55.3945 146.488 55.3945C147.676 55.3945 148.586 55.1523 149.219 54.668C149.852 54.1836 150.168 53.5234 150.168 52.6875C150.168 51.8516 149.875 51.207 149.289 50.7539C148.703 50.293 147.641 49.8398 146.102 49.3945Z" fill="#8A8D8F"/>
<path d="M86.0078 49.3945L86.0773 49.1544L86.0769 49.1543L86.0078 49.3945ZM81.7891 47.3555L81.6189 47.5387L81.6207 47.5402L81.7891 47.3555ZM82.082 41.0273L82.2403 41.2209L82.2404 41.2208L82.082 41.0273ZM89.4062 40.3828L89.2952 40.6068L89.296 40.6072L89.4062 40.3828ZM91.5391 42.2578L91.3273 42.3907L91.3282 42.3922L91.5391 42.2578ZM92.3008 44.8711V45.1211H92.5508V44.8711H92.3008ZM90.0391 44.8711H89.7891V45.1211H90.0391V44.8711ZM89.0547 42.4453L88.887 42.6307L88.8882 42.6318L89.0547 42.4453ZM83.6758 42.293L83.8301 42.4896L83.8305 42.4894L83.6758 42.293ZM83.6289 46.0898L83.4696 46.2825L83.4724 46.2848L83.6289 46.0898ZM86.6406 47.4023L86.5728 47.643L86.5732 47.6431L86.6406 47.4023ZM89.9688 48.7266L89.8389 48.9402L89.8414 48.9417L89.9688 48.7266ZM91.75 50.4023L91.5354 50.5306L91.5366 50.5325L91.75 50.4023ZM90.7188 55.9922L90.871 56.1905L90.8719 56.1898L90.7188 55.9922ZM83.1133 56.5664L83.0114 56.7947L83.0129 56.7954L83.1133 56.5664ZM80.7578 54.7148L80.553 54.8582L80.554 54.8596L80.7578 54.7148ZM79.9375 52.0547V51.8047H79.6875V52.0547H79.9375ZM82.1992 52.0547H82.4492V51.8047H82.1992V52.0547ZM83.3359 54.5039L83.1805 54.6997L83.1827 54.7015L83.3359 54.5039ZM89.1953 50.7539L89.0407 50.9504L89.0424 50.9517L89.1953 50.7539ZM86.0769 49.1543C84.1622 48.6039 82.7988 47.9376 81.9575 47.1707L81.6207 47.5402C82.545 48.3827 83.9941 49.0758 85.9387 49.6348L86.0769 49.1543ZM81.9592 47.1723C81.1348 46.4068 80.7266 45.473 80.7266 44.3555H80.2266C80.2266 45.6129 80.6933 46.6792 81.6189 47.5387L81.9592 47.1723ZM80.7266 44.3555C80.7266 43.0892 81.2261 42.05 82.2403 41.2209L81.9238 40.8338C80.7973 41.7547 80.2266 42.9342 80.2266 44.3555H80.7266ZM82.2404 41.2208C83.2642 40.3825 84.6024 39.9531 86.2773 39.9531V39.4531C84.5147 39.4531 83.0561 39.9066 81.9236 40.8339L82.2404 41.2208ZM86.2773 39.9531C87.4164 39.9531 88.4205 40.1732 89.2952 40.6068L89.5173 40.1588C88.5639 39.6862 87.482 39.4531 86.2773 39.4531V39.9531ZM89.296 40.6072C90.1801 41.0418 90.8542 41.6367 91.3273 42.3907L91.7508 42.1249C91.2239 41.2852 90.4761 40.6301 89.5165 40.1585L89.296 40.6072ZM91.3282 42.3922C91.8105 43.1489 92.0508 43.9734 92.0508 44.8711H92.5508C92.5508 43.8782 92.2833 42.9605 91.7499 42.1235L91.3282 42.3922ZM92.3008 44.6211H90.0391V45.1211H92.3008V44.6211ZM90.2891 44.8711C90.2891 43.7821 89.9398 42.9005 89.2212 42.2588L88.8882 42.6318C89.482 43.162 89.7891 43.8976 89.7891 44.8711H90.2891ZM89.2224 42.2599C88.5061 41.6119 87.5126 41.3047 86.2773 41.3047V41.8047C87.4327 41.8047 88.2907 42.0913 88.887 42.6307L89.2224 42.2599ZM86.2773 41.3047C85.1336 41.3047 84.2047 41.5582 83.5211 42.0966L83.8305 42.4894C84.3969 42.0433 85.2023 41.8047 86.2773 41.8047V41.3047ZM83.5214 42.0963C82.8369 42.6335 82.5 43.3856 82.5 44.3203H83C83 43.5206 83.2802 42.9212 83.8301 42.4896L83.5214 42.0963ZM82.5 44.3203C82.5 45.0977 82.8323 45.7557 83.4696 46.2825L83.7882 45.8972C83.2536 45.4552 83 44.9335 83 44.3203H82.5ZM83.4724 46.2848C84.1068 46.7939 85.1509 47.2423 86.5728 47.643L86.7084 47.1617C85.3022 46.7655 84.3386 46.3389 83.7854 45.8949L83.4724 46.2848ZM86.5732 47.6431C87.9843 48.0385 89.0694 48.4725 89.8389 48.9402L90.0986 48.5129C89.2744 48.0119 88.1407 47.5631 86.7081 47.1616L86.5732 47.6431ZM89.8414 48.9417C90.6191 49.4023 91.1787 49.9337 91.5354 50.5306L91.9646 50.2741C91.5557 49.5898 90.9278 49.004 90.0961 48.5115L89.8414 48.9417ZM91.5366 50.5325C91.8997 51.1281 92.0859 51.8355 92.0859 52.6641H92.5859C92.5859 51.7582 92.3815 50.9578 91.9634 50.2722L91.5366 50.5325ZM92.0859 52.6641C92.0859 53.9708 91.5816 55.0068 90.5656 55.7946L90.8719 56.1898C92.0121 55.3057 92.5859 54.1229 92.5859 52.6641H92.0859ZM90.5665 55.7939C89.5444 56.579 88.1621 56.9844 86.3945 56.9844V57.4844C88.2363 57.4844 89.7368 57.0616 90.871 56.1905L90.5665 55.7939ZM86.3945 56.9844C85.2552 56.9844 84.1959 56.7681 83.2137 56.3374L83.0129 56.7954C84.0619 57.2553 85.1901 57.4844 86.3945 57.4844V56.9844ZM83.2151 56.3381C82.2337 55.9002 81.4865 55.3094 80.9617 54.5701L80.554 54.8596C81.1385 55.6828 81.9616 56.3263 83.0114 56.7947L83.2151 56.3381ZM80.9626 54.5715C80.4464 53.834 80.1875 52.9978 80.1875 52.0547H79.6875C79.6875 53.096 79.9755 54.0332 80.553 54.8582L80.9626 54.5715ZM79.9375 52.3047H82.1992V51.8047H79.9375V52.3047ZM81.9492 52.0547C81.9492 53.1564 82.3586 54.0472 83.1805 54.6997L83.4914 54.3081C82.7977 53.7574 82.4492 53.0154 82.4492 52.0547H81.9492ZM83.1827 54.7015C84.0042 55.3386 85.0831 55.6445 86.3945 55.6445V55.1445C85.1591 55.1445 84.1989 54.8568 83.4891 54.3064L83.1827 54.7015ZM86.3945 55.6445C87.6112 55.6445 88.5838 55.3971 89.277 54.8665L88.973 54.4694C88.4006 54.9076 87.5528 55.1445 86.3945 55.1445V55.6445ZM89.277 54.8665C89.975 54.3322 90.3242 53.5968 90.3242 52.6875H89.8242C89.8242 53.4501 89.5406 54.035 88.973 54.4694L89.277 54.8665ZM90.3242 52.6875C90.3242 51.7855 90.0038 51.0631 89.3482 50.5561L89.0424 50.9517C89.5587 51.3509 89.8242 51.9176 89.8242 52.6875H90.3242ZM89.3499 50.5574C88.7232 50.0644 87.6199 49.6007 86.0773 49.1544L85.9383 49.6347C87.4738 50.079 88.4956 50.5215 89.0407 50.9504L89.3499 50.5574ZM107.242 39.9375H107.492V39.6875H107.242V39.9375ZM107.242 51.5391L107.492 51.5403V51.5391H107.242ZM105.719 55.4883L105.541 55.3129L105.54 55.3136L105.719 55.4883ZM101.641 57.2109L101.65 57.4609L101.659 57.4603L101.641 57.2109ZM101.043 57.2344V57.4846L101.053 57.4842L101.043 57.2344ZM94.8906 51.5625H94.6406V51.5647L94.8906 51.5625ZM94.8906 39.9375V39.6875H94.6406V39.9375H94.8906ZM97.1172 39.9375H97.3672V39.6875H97.1172V39.9375ZM98.1367 54.375L97.9589 54.5508L97.9599 54.5518L98.1367 54.375ZM103.961 54.375L103.784 54.1982L103.783 54.1992L103.961 54.375ZM104.98 39.9375V39.6875H104.73V39.9375H104.98ZM106.992 39.9375V51.5391H107.492V39.9375H106.992ZM106.992 51.5378C106.985 53.0906 106.497 54.3417 105.541 55.3129L105.897 55.6637C106.956 54.588 107.484 53.2063 107.492 51.5403L106.992 51.5378ZM105.54 55.3136C104.591 56.2848 103.293 56.8401 101.622 56.9616L101.659 57.4603C103.425 57.3318 104.847 56.7386 105.898 55.663L105.54 55.3136ZM101.631 56.9611L101.033 56.9846L101.053 57.4842L101.65 57.4607L101.631 56.9611ZM101.043 56.9844C99.222 56.9844 97.799 56.494 96.7462 55.5376L96.41 55.9077C97.576 56.9669 99.1295 57.4844 101.043 57.4844V56.9844ZM96.7462 55.5376C95.6977 54.585 95.1557 53.2697 95.1406 51.5603L94.6406 51.5647C94.6568 53.3865 95.2398 54.8446 96.41 55.9077L96.7462 55.5376ZM95.1406 51.5625V39.9375H94.6406V51.5625H95.1406ZM94.8906 40.1875H97.1172V39.6875H94.8906V40.1875ZM96.8672 39.9375V51.4922H97.3672V39.9375H96.8672ZM96.8672 51.4922C96.8672 52.7733 97.2211 53.8045 97.9589 54.5508L98.3145 54.1992C97.693 53.5705 97.3672 52.6798 97.3672 51.4922H96.8672ZM97.9599 54.5518C98.6997 55.2915 99.7401 55.6445 101.043 55.6445V55.1445C99.8302 55.1445 98.9331 54.8179 98.3135 54.1982L97.9599 54.5518ZM101.043 55.6445C102.36 55.6445 103.406 55.2921 104.139 54.5508L103.783 54.1992C103.172 54.8172 102.273 55.1445 101.043 55.1445V55.6445ZM104.138 54.5518C104.877 53.8129 105.23 52.7849 105.23 51.5039H104.73C104.73 52.6917 104.405 53.5777 103.784 54.1982L104.138 54.5518ZM105.23 51.5039V39.9375H104.73V51.5039H105.23ZM104.98 40.1875H107.242V39.6875H104.98V40.1875ZM113.043 50.3203V50.0703H112.793V50.3203H113.043ZM113.043 57V57.25H113.293V57H113.043ZM110.793 57H110.543V57.25H110.793V57ZM110.793 39.9375V39.6875H110.543V39.9375H110.793ZM121.469 41.3672L121.301 41.5527L121.302 41.5533L121.469 41.3672ZM121.504 48.9844L121.667 49.1736V49.1735L121.504 48.9844ZM113.043 48.4805H112.793V48.7305H113.043V48.4805ZM119.852 47.6367L120.017 47.8246L120.018 47.8234L119.852 47.6367ZM117.215 41.7891L117.22 41.5391H117.215V41.7891ZM113.043 41.7891V41.5391H112.793V41.7891H113.043ZM112.793 50.3203V57H113.293V50.3203H112.793ZM113.043 56.75H110.793V57.25H113.043V56.75ZM111.043 57V39.9375H110.543V57H111.043ZM110.793 40.1875H117.086V39.6875H110.793V40.1875ZM117.086 40.1875C118.911 40.1875 120.305 40.6527 121.301 41.5527L121.636 41.1817C120.523 40.1754 118.995 39.6875 117.086 39.6875V40.1875ZM121.302 41.5533C122.306 42.4539 122.812 43.6451 122.812 45.1523H123.312C123.312 43.519 122.757 42.1867 121.636 41.1811L121.302 41.5533ZM122.812 45.1523C122.812 46.7523 122.313 47.9541 121.34 48.7953L121.667 49.1735C122.773 48.2178 123.312 46.8648 123.312 45.1523H122.812ZM121.341 48.7952C120.37 49.633 118.957 50.0703 117.062 50.0703V50.5703C119.027 50.5703 120.575 50.117 121.667 49.1736L121.341 48.7952ZM117.062 50.0703H113.043V50.5703H117.062V50.0703ZM113.043 48.7305H117.086V48.2305H113.043V48.7305ZM117.086 48.7305C118.325 48.7305 119.315 48.4409 120.017 47.8246L119.687 47.4489C119.107 47.9575 118.253 48.2305 117.086 48.2305V48.7305ZM120.018 47.8234C120.724 47.1944 121.062 46.2984 121.062 45.1758H120.562C120.562 46.1938 120.26 46.9385 119.685 47.45L120.018 47.8234ZM121.062 45.1758C121.062 44.1028 120.722 43.2209 120.024 42.5571L119.679 42.9194C120.263 43.4744 120.562 44.2175 120.562 45.1758H121.062ZM120.024 42.5571C119.327 41.8943 118.383 41.5635 117.22 41.5391L117.21 42.039C118.282 42.0615 119.095 42.3635 119.679 42.9194L120.024 42.5571ZM117.215 41.5391H113.043V42.0391H117.215V41.5391ZM112.793 41.7891V48.4805H113.293V41.7891H112.793ZM128.184 50.3203V50.0703H127.934V50.3203H128.184ZM128.184 57V57.25H128.434V57H128.184ZM125.934 57H125.684V57.25H125.934V57ZM125.934 39.9375V39.6875H125.684V39.9375H125.934ZM136.609 41.3672L136.442 41.5527V41.5533L136.609 41.3672ZM136.645 48.9844L136.808 49.1736V49.1735L136.645 48.9844ZM128.184 48.4805H127.934V48.7305H128.184V48.4805ZM134.992 47.6367L135.157 47.8246L135.158 47.8234L134.992 47.6367ZM132.355 41.7891L132.361 41.5391H132.355V41.7891ZM128.184 41.7891V41.5391H127.934V41.7891H128.184ZM127.934 50.3203V57H128.434V50.3203H127.934ZM128.184 56.75H125.934V57.25H128.184V56.75ZM126.184 57V39.9375H125.684V57H126.184ZM125.934 40.1875H132.227V39.6875H125.934V40.1875ZM132.227 40.1875C134.052 40.1875 135.446 40.6527 136.442 41.5527L136.777 41.1817C135.663 40.1754 134.136 39.6875 132.227 39.6875V40.1875ZM136.442 41.5533C137.446 42.4539 137.953 43.6451 137.953 45.1523H138.453C138.453 43.519 137.897 42.1867 136.776 41.1811L136.442 41.5533ZM137.953 45.1523C137.953 46.7523 137.454 47.9541 136.481 48.7953L136.808 49.1735C137.913 48.2178 138.453 46.8648 138.453 45.1523H137.953ZM136.481 48.7952C135.511 49.633 134.098 50.0703 132.203 50.0703V50.5703C134.168 50.5703 135.716 50.117 136.808 49.1736L136.481 48.7952ZM132.203 50.0703H128.184V50.5703H132.203V50.0703ZM128.184 48.7305H132.227V48.2305H128.184V48.7305ZM132.227 48.7305C133.466 48.7305 134.455 48.4409 135.157 47.8246L134.827 47.4489C134.248 47.9575 133.394 48.2305 132.227 48.2305V48.7305ZM135.158 47.8234C135.865 47.1944 136.203 46.2984 136.203 45.1758H135.703C135.703 46.1938 135.401 46.9385 134.826 47.45L135.158 47.8234ZM136.203 45.1758C136.203 44.1028 135.862 43.2209 135.164 42.5571L134.82 42.9194C135.403 43.4744 135.703 44.2175 135.703 45.1758H136.203ZM135.164 42.5571C134.468 41.8943 133.523 41.5635 132.361 41.5391L132.35 42.039C133.422 42.0615 134.235 42.3635 134.82 42.9194L135.164 42.5571ZM132.355 41.5391H128.184V42.0391H132.355V41.5391ZM127.934 41.7891V48.4805H128.434V41.7891H127.934ZM146.102 49.3945L146.171 49.1544V49.1543L146.102 49.3945ZM141.883 47.3555L141.713 47.5387L141.714 47.5402L141.883 47.3555ZM142.176 41.0273L142.334 41.2209V41.2208L142.176 41.0273ZM149.5 40.3828L149.389 40.6068L149.39 40.6072L149.5 40.3828ZM151.633 42.2578L151.421 42.3907L151.422 42.3922L151.633 42.2578ZM152.395 44.8711V45.1211H152.645V44.8711H152.395ZM150.133 44.8711H149.883V45.1211H150.133V44.8711ZM149.148 42.4453L148.981 42.6307L148.982 42.6318L149.148 42.4453ZM143.77 42.293L143.924 42.4896V42.4894L143.77 42.293ZM143.723 46.0898L143.563 46.2825L143.566 46.2848L143.723 46.0898ZM146.734 47.4023L146.667 47.643V47.6431L146.734 47.4023ZM150.062 48.7266L149.933 48.9402L149.935 48.9417L150.062 48.7266ZM151.844 50.4023L151.629 50.5306L151.63 50.5325L151.844 50.4023ZM150.812 55.9922L150.965 56.1905L150.966 56.1898L150.812 55.9922ZM143.207 56.5664L143.105 56.7947L143.107 56.7954L143.207 56.5664ZM140.852 54.7148L140.647 54.8582L140.648 54.8596L140.852 54.7148ZM140.031 52.0547V51.8047H139.781V52.0547H140.031ZM142.293 52.0547H142.543V51.8047H142.293V52.0547ZM143.43 54.5039L143.274 54.6997L143.276 54.7015L143.43 54.5039ZM149.289 50.7539L149.134 50.9504L149.136 50.9517L149.289 50.7539ZM146.171 49.1543C144.256 48.6039 142.893 47.9376 142.051 47.1707L141.714 47.5402C142.639 48.3827 144.088 49.0758 146.032 49.6348L146.171 49.1543ZM142.053 47.1723C141.229 46.4068 140.82 45.473 140.82 44.3555H140.32C140.32 45.6129 140.787 46.6792 141.713 47.5387L142.053 47.1723ZM140.82 44.3555C140.82 43.0892 141.32 42.05 142.334 41.2209L142.018 40.8338C140.891 41.7547 140.32 42.9342 140.32 44.3555H140.82ZM142.334 41.2208C143.358 40.3825 144.696 39.9531 146.371 39.9531V39.4531C144.608 39.4531 143.15 39.9066 142.017 40.8339L142.334 41.2208ZM146.371 39.9531C147.51 39.9531 148.514 40.1732 149.389 40.6068L149.611 40.1588C148.658 39.6862 147.576 39.4531 146.371 39.4531V39.9531ZM149.39 40.6072C150.274 41.0418 150.948 41.6367 151.421 42.3907L151.845 42.1249C151.318 41.2852 150.57 40.6301 149.61 40.1585L149.39 40.6072ZM151.422 42.3922C151.904 43.1489 152.145 43.9734 152.145 44.8711H152.645C152.645 43.8782 152.377 42.9605 151.844 42.1235L151.422 42.3922ZM152.395 44.6211H150.133V45.1211H152.395V44.6211ZM150.383 44.8711C150.383 43.7821 150.034 42.9005 149.315 42.2588L148.982 42.6318C149.576 43.162 149.883 43.8976 149.883 44.8711H150.383ZM149.316 42.2599C148.6 41.6119 147.606 41.3047 146.371 41.3047V41.8047C147.526 41.8047 148.384 42.0913 148.981 42.6307L149.316 42.2599ZM146.371 41.3047C145.227 41.3047 144.298 41.5582 143.615 42.0966L143.924 42.4894C144.491 42.0433 145.296 41.8047 146.371 41.8047V41.3047ZM143.615 42.0963C142.931 42.6335 142.594 43.3856 142.594 44.3203H143.094C143.094 43.5206 143.374 42.9212 143.924 42.4896L143.615 42.0963ZM142.594 44.3203C142.594 45.0977 142.926 45.7557 143.563 46.2825L143.882 45.8972C143.347 45.4552 143.094 44.9335 143.094 44.3203H142.594ZM143.566 46.2848C144.201 46.7939 145.245 47.2423 146.667 47.643L146.802 47.1617C145.396 46.7655 144.432 46.3389 143.879 45.8949L143.566 46.2848ZM146.667 47.6431C148.078 48.0385 149.163 48.4725 149.933 48.9402L150.192 48.5129C149.368 48.0119 148.234 47.5631 146.802 47.1616L146.667 47.6431ZM149.935 48.9417C150.713 49.4023 151.272 49.9337 151.629 50.5306L152.058 50.2741C151.649 49.5898 151.022 49.004 150.19 48.5115L149.935 48.9417ZM151.63 50.5325C151.993 51.1281 152.18 51.8355 152.18 52.6641H152.68C152.68 51.7582 152.475 50.9578 152.057 50.2722L151.63 50.5325ZM152.18 52.6641C152.18 53.9708 151.675 55.0068 150.659 55.7946L150.966 56.1898C152.106 55.3057 152.68 54.1229 152.68 52.6641H152.18ZM150.66 55.7939C149.638 56.579 148.256 56.9844 146.488 56.9844V57.4844C148.33 57.4844 149.831 57.0616 150.965 56.1905L150.66 55.7939ZM146.488 56.9844C145.349 56.9844 144.29 56.7681 143.307 56.3374L143.107 56.7954C144.156 57.2553 145.284 57.4844 146.488 57.4844V56.9844ZM143.309 56.3381C142.327 55.9002 141.58 55.3094 141.055 54.5701L140.648 54.8596C141.232 55.6828 142.055 56.3263 143.105 56.7947L143.309 56.3381ZM141.056 54.5715C140.54 53.834 140.281 52.9978 140.281 52.0547H139.781C139.781 53.096 140.069 54.0332 140.647 54.8582L141.056 54.5715ZM140.031 52.3047H142.293V51.8047H140.031V52.3047ZM142.043 52.0547C142.043 53.1564 142.452 54.0472 143.274 54.6997L143.585 54.3081C142.891 53.7574 142.543 53.0154 142.543 52.0547H142.043ZM143.276 54.7015C144.098 55.3386 145.177 55.6445 146.488 55.6445V55.1445C145.253 55.1445 144.293 54.8568 143.583 54.3064L143.276 54.7015ZM146.488 55.6445C147.705 55.6445 148.678 55.3971 149.371 54.8665L149.067 54.4694C148.494 54.9076 147.647 55.1445 146.488 55.1445V55.6445ZM149.371 54.8665C150.069 54.3322 150.418 53.5968 150.418 52.6875H149.918C149.918 53.4501 149.634 54.035 149.067 54.4694L149.371 54.8665ZM150.418 52.6875C150.418 51.7855 150.098 51.0631 149.442 50.5561L149.136 50.9517C149.652 51.3509 149.918 51.9176 149.918 52.6875H150.418ZM149.444 50.5574C148.817 50.0644 147.714 49.6007 146.171 49.1544L146.032 49.6347C147.568 50.079 148.589 50.5215 149.134 50.9504L149.444 50.5574Z" fill="#8A8D8F"/>
<path d="M60 2H4C2.89543 2 2 2.89543 2 4V60C2 61.1046 2.89543 62 4 62H60C61.1046 62 62 61.1046 62 60V4C62 2.89543 61.1046 2 60 2Z" fill="white" stroke="#9DCFB8" stroke-width="4"/>
<path d="M32 60C47.464 60 60 47.464 60 32C60 16.536 47.464 4 32 4C16.536 4 4 16.536 4 32C4 47.464 16.536 60 32 60Z" stroke="#FFC700" stroke-width="4"/>
<path d="M2.5 32C10.5 40.3333 33.4 52 61 32" stroke="#FFC700" stroke-width="4"/>
<path d="M7.92395 39.7372C9.88788 41.7625 11.4855 43.7908 13.5542 45.6526C14.2807 46.3064 16.7037 47.5124 16.2624 47.2918C15.3041 46.8126 7.60716 43.1537 9.34933 41.1626C9.5865 40.8916 11.3092 42.8899 11.7725 42.9444C13.5139 43.1492 15.203 44.2272 16.9039 44.2272C19.1673 44.2272 23.5498 45.9735 24.6009 48.0757" stroke="#FFC700" stroke-width="3" stroke-linecap="round"/>
<path d="M22.0352 44.2272C18.7024 44.8104 17.3177 43.1099 14.3381 42.9443C12.8135 42.8596 13.6405 42.3862 12.7346 41.6615C11.9149 41.0058 12.6186 42.1886 13.0553 42.4455C17.6789 45.1652 21.7733 48.7171 27.4873 48.7171C31.6835 48.7171 38.9592 50.0703 42.5607 47.755C44.5042 46.5056 52.182 43.2738 52.182 41.6615" stroke="#FFC700" stroke-width="5" stroke-linecap="round"/>
<path d="M54.1063 39.7372C45.1173 46.5471 36.8688 49.5191 25.5987 47.4699C22.1222 46.8379 25.443 46.1515 27.3091 46.1515C29.2928 46.1515 31.2764 46.1515 33.2601 46.1515C35.6295 46.1515 42.5607 46.9773 42.5607 43.5858" stroke="#FFC700" stroke-width="5" stroke-linecap="round"/>
<path d="M56.672 38.4544C54.1178 41.0885 53.2764 44.136 50.8992 46.7929C49.092 48.8128 47.1424 50.6559 45.1264 52.5657C42.2377 55.3024 36.7983 57.0557 32.9394 57.0557C29.4728 57.0557 24.6711 57.4966 21.8927 55.2739C20.7797 54.3835 18.947 54.3237 17.6878 53.0646C16.287 51.6637 15.2468 49.9821 13.8393 48.5746C12.9445 47.6798 11.6457 47.0225 10.6322 46.0089C9.73014 45.1069 12.6547 47.1137 13.6968 47.5769C16.5816 48.859 19.4724 52.3772 22.6767 52.5657C26.9219 52.8154 31.2528 52.5657 35.5051 52.5657C39.7008 52.5657 41.1696 48.9837 45.7679 51.2829" stroke="#FFC700" stroke-width="5" stroke-linecap="round"/>
<path d="M12 28.016C14 27.8493 18.7 28.916 21.5 34.516" stroke="#9DCFB8" stroke-width="4"/>
<path d="M48.5 28.016C46.5 27.8493 41.8 28.916 39 34.516" stroke="#9DCFB8" stroke-width="4"/>
</svg>
