<svg width="164" height="64" viewBox="0 0 164 64" fill="none" xmlns="http://www.w3.org/2000/svg">
<path d="M94.6582 21.0293C94.6582 23.5371 94.2363 25.7285 93.3926 27.6035C92.5488 29.4668 91.3535 30.8906 89.8066 31.875C88.2598 32.8594 86.4551 33.3516 84.3926 33.3516C82.377 33.3516 80.5898 32.8594 79.0312 31.875C77.4727 30.8789 76.2598 29.4668 75.3926 27.6387C74.5371 25.7988 74.0977 23.6719 74.0742 21.2578V19.4121C74.0742 16.9512 74.502 14.7773 75.3574 12.8906C76.2129 11.0039 77.4199 9.5625 78.9785 8.56641C80.5488 7.55859 82.3418 7.05469 84.3574 7.05469C86.4082 7.05469 88.2129 7.55273 89.7715 8.54883C91.3418 9.5332 92.5488 10.9688 93.3926 12.8555C94.2363 14.7305 94.6582 16.916 94.6582 19.4121V21.0293ZM91.3008 19.377C91.3008 16.3418 90.6914 14.0156 89.4727 12.3984C88.2539 10.7695 86.5488 9.95508 84.3574 9.95508C82.2246 9.95508 80.543 10.7695 79.3125 12.3984C78.0938 14.0156 77.4668 16.2656 77.4316 19.1484V21.0293C77.4316 23.9707 78.0469 26.2852 79.2773 27.9727C80.5195 29.6484 82.2246 30.4863 84.3926 30.4863C86.5723 30.4863 88.2598 29.6953 89.4551 28.1133C90.6504 26.5195 91.2656 24.2402 91.3008 21.2754V19.377ZM103.096 22.9805V33H99.7207V7.40625H109.16C111.961 7.40625 114.152 8.12109 115.734 9.55078C117.328 10.9805 118.125 12.873 118.125 15.2285C118.125 17.7129 117.346 19.6289 115.787 20.9766C114.24 22.3125 112.02 22.9805 109.125 22.9805H103.096ZM103.096 20.2207H109.16C110.965 20.2207 112.348 19.7988 113.309 18.9551C114.27 18.0996 114.75 16.8691 114.75 15.2637C114.75 13.7402 114.27 12.5215 113.309 11.6074C112.348 10.6934 111.029 10.2188 109.354 10.1836H103.096V20.2207ZM125.807 22.9805V33H122.432V7.40625H131.871C134.672 7.40625 136.863 8.12109 138.445 9.55078C140.039 10.9805 140.836 12.873 140.836 15.2285C140.836 17.7129 140.057 19.6289 138.498 20.9766C136.951 22.3125 134.73 22.9805 131.836 22.9805H125.807ZM125.807 20.2207H131.871C133.676 20.2207 135.059 19.7988 136.02 18.9551C136.98 18.0996 137.461 16.8691 137.461 15.2637C137.461 13.7402 136.98 12.5215 136.02 11.6074C135.059 10.6934 133.74 10.2188 132.064 10.1836H125.807V20.2207ZM156.85 26.3203H146.127L143.719 33H140.238L150.012 7.40625H152.965L162.756 33H159.293L156.85 26.3203ZM147.146 23.543H155.848L151.488 11.5723L147.146 23.543Z" fill="#8A8D8F"/>
<path d="M93.3926 27.6035L93.8481 27.8098L93.8485 27.8087L93.3926 27.6035ZM79.0312 31.875L78.762 32.2963L78.7643 32.2977L79.0312 31.875ZM75.3926 27.6387L74.9392 27.8495L74.9408 27.853L75.3926 27.6387ZM74.0742 21.2578H73.5742V21.2627L74.0742 21.2578ZM78.9785 8.56641L79.2478 8.98772L79.2486 8.9872L78.9785 8.56641ZM89.7715 8.54883L89.5022 8.97015L89.5059 8.97247L89.7715 8.54883ZM93.3926 12.8555L92.9361 13.0596L92.9366 13.0607L93.3926 12.8555ZM89.4727 12.3984L89.0723 12.698L89.0734 12.6994L89.4727 12.3984ZM79.3125 12.3984L78.9135 12.0971L78.9132 12.0975L79.3125 12.3984ZM77.4316 19.1484L76.9316 19.1423V19.1484H77.4316ZM79.2773 27.9727L78.8733 28.2673L78.8757 28.2704L79.2773 27.9727ZM89.4551 28.1133L89.854 28.4147L89.8551 28.4133L89.4551 28.1133ZM91.3008 21.2754L91.8008 21.2813V21.2754H91.3008ZM94.1582 21.0293C94.1582 23.4816 93.7457 25.6004 92.9366 27.3983L93.8485 27.8087C94.727 25.8566 95.1582 23.5927 95.1582 21.0293H94.1582ZM92.9371 27.3973C92.1286 29.1826 90.9938 30.5269 89.5382 31.4532L90.0751 32.2968C91.7132 31.2544 92.969 29.751 93.8481 27.8098L92.9371 27.3973ZM89.5382 31.4532C88.0813 32.3803 86.3722 32.8516 84.3926 32.8516V33.8516C86.5379 33.8516 88.4382 33.3384 90.0751 32.2968L89.5382 31.4532ZM84.3926 32.8516C82.4623 32.8516 80.7695 32.3815 79.2982 31.4523L78.7643 32.2977C80.4102 33.3373 82.2916 33.8516 84.3926 33.8516V32.8516ZM79.3005 31.4537C77.8283 30.5128 76.6752 29.176 75.8443 27.4244L74.9408 27.853C75.8443 29.7576 77.117 31.245 78.762 32.2963L79.3005 31.4537ZM75.846 27.4279C75.0257 25.6636 74.5971 23.6092 74.5742 21.253L73.5742 21.2627C73.5982 23.7346 74.0486 25.934 74.9392 27.8495L75.846 27.4279ZM74.5742 21.2578V19.4121H73.5742V21.2578H74.5742ZM74.5742 19.4121C74.5742 17.0092 74.9917 14.9079 75.8128 13.0971L74.902 12.6841C74.0122 14.6468 73.5742 16.8932 73.5742 19.4121H74.5742ZM75.8128 13.0971C76.6333 11.2876 77.7802 9.92561 79.2478 8.98771L78.7093 8.1451C77.0596 9.19939 75.7925 10.7202 74.902 12.6841L75.8128 13.0971ZM79.2486 8.9872C80.7318 8.03527 82.4295 7.55469 84.3574 7.55469V6.55469C82.2541 6.55469 80.3658 7.08192 78.7085 8.14561L79.2486 8.9872ZM84.3574 7.55469C86.3235 7.55469 88.0326 8.03092 89.5022 8.97014L90.0407 8.12752C88.3932 7.07455 86.4929 6.55469 84.3574 6.55469V7.55469ZM89.5059 8.97247C90.9827 9.89825 92.128 11.2525 92.9361 13.0596L93.849 12.6513C92.9696 10.685 91.7008 9.16816 90.0371 8.12518L89.5059 8.97247ZM92.9366 13.0607C93.7458 14.8589 94.1582 16.9719 94.1582 19.4121H95.1582C95.1582 16.8601 94.7268 14.6021 93.8485 12.6503L92.9366 13.0607ZM94.1582 19.4121V21.0293H95.1582V19.4121H94.1582ZM91.8008 19.377C91.8008 16.2847 91.1814 13.8351 89.872 12.0975L89.0734 12.6994C90.2014 14.1961 90.8008 16.3989 90.8008 19.377H91.8008ZM89.873 12.0989C88.5517 10.3329 86.6923 9.45508 84.3574 9.45508V10.4551C86.4054 10.4551 87.9561 11.2061 89.0723 12.698L89.873 12.0989ZM84.3574 9.45508C82.076 9.45508 80.2433 10.3367 78.9135 12.0971L79.7115 12.6998C80.8426 11.2024 82.3732 10.4551 84.3574 10.4551V9.45508ZM78.9132 12.0975C77.6083 13.829 76.9676 16.1967 76.9317 19.1423L77.9316 19.1545C77.966 16.3346 78.5792 14.2022 79.7118 12.6994L78.9132 12.0975ZM76.9316 19.1484V21.0293H77.9316V19.1484H76.9316ZM76.9316 21.0293C76.9316 24.0346 77.5596 26.4656 78.8733 28.2672L79.6813 27.6781C78.5341 26.1047 77.9316 23.9068 77.9316 21.0293H76.9316ZM78.8757 28.2704C80.2164 30.0792 82.0736 30.9863 84.3926 30.9863V29.9863C82.3757 29.9863 80.8226 29.2177 79.679 27.6749L78.8757 28.2704ZM84.3926 30.9863C86.7111 30.9863 88.5539 30.1355 89.854 28.4147L89.0561 27.8119C87.9656 29.2552 86.4335 29.9863 84.3926 29.9863V30.9863ZM89.8551 28.4133C91.1384 26.7022 91.7649 24.303 91.8007 21.2813L90.8008 21.2695C90.7663 24.1774 90.1624 26.3368 89.0551 27.8133L89.8551 28.4133ZM91.8008 21.2754V19.377H90.8008V21.2754H91.8008ZM103.096 22.9805V22.4805H102.596V22.9805H103.096ZM103.096 33V33.5H103.596V33H103.096ZM99.7207 33H99.2207V33.5H99.7207V33ZM99.7207 7.40625V6.90625H99.2207V7.40625H99.7207ZM115.734 9.55078L115.399 9.92175L115.4 9.92297L115.734 9.55078ZM115.787 20.9766L116.114 21.355V21.3548L115.787 20.9766ZM103.096 20.2207H102.596V20.7207H103.096V20.2207ZM113.309 18.9551L113.639 19.3308L113.641 19.3285L113.309 18.9551ZM109.354 10.1836L109.364 9.68359H109.354V10.1836ZM103.096 10.1836V9.68359H102.596V10.1836H103.096ZM102.596 22.9805V33H103.596V22.9805H102.596ZM103.096 32.5H99.7207V33.5H103.096V32.5ZM100.221 33V7.40625H99.2207V33H100.221ZM99.7207 7.90625H109.16V6.90625H99.7207V7.90625ZM109.16 7.90625C111.877 7.90625 113.935 8.59837 115.399 9.92174L116.07 9.17982C114.37 7.64382 112.045 6.90625 109.16 6.90625V7.90625ZM115.4 9.92297C116.877 11.2477 117.625 12.9992 117.625 15.2285H118.625C118.625 12.7469 117.779 10.7132 116.068 9.17859L115.4 9.92297ZM117.625 15.2285C117.625 17.6004 116.886 19.3651 115.46 20.5983L116.114 21.3548C117.805 19.8927 118.625 17.8254 118.625 15.2285H117.625ZM115.46 20.5982C114.036 21.8285 111.949 22.4805 109.125 22.4805V23.4805C112.09 23.4805 114.445 22.7965 116.114 21.355L115.46 20.5982ZM109.125 22.4805H103.096V23.4805H109.125V22.4805ZM103.096 20.7207H109.16V19.7207H103.096V20.7207ZM109.16 20.7207C111.037 20.7207 112.555 20.2822 113.638 19.3308L112.979 18.5794C112.14 19.3154 110.893 19.7207 109.16 19.7207V20.7207ZM113.641 19.3285C114.734 18.3555 115.25 16.9737 115.25 15.2637H114.25C114.25 16.7645 113.805 17.8437 112.976 18.5816L113.641 19.3285ZM115.25 15.2637C115.25 13.6256 114.728 12.2679 113.653 11.2451L112.964 11.9697C113.811 12.7751 114.25 13.8549 114.25 15.2637H115.25ZM113.653 11.2451C112.58 10.2242 111.13 9.72076 109.364 9.6837L109.343 10.6835C110.928 10.7167 112.115 11.1625 112.964 11.9697L113.653 11.2451ZM109.354 9.68359H103.096V10.6836H109.354V9.68359ZM102.596 10.1836V20.2207H103.596V10.1836H102.596ZM125.807 22.9805V22.4805H125.307V22.9805H125.807ZM125.807 33V33.5H126.307V33H125.807ZM122.432 33H121.932V33.5H122.432V33ZM122.432 7.40625V6.90625H121.932V7.40625H122.432ZM138.445 9.55078L138.11 9.92175L138.111 9.92297L138.445 9.55078ZM138.498 20.9766L138.825 21.355V21.3548L138.498 20.9766ZM125.807 20.2207H125.307V20.7207H125.807V20.2207ZM136.02 18.9551L136.349 19.3308L136.352 19.3285L136.02 18.9551ZM132.064 10.1836L132.075 9.68359H132.064V10.1836ZM125.807 10.1836V9.68359H125.307V10.1836H125.807ZM125.307 22.9805V33H126.307V22.9805H125.307ZM125.807 32.5H122.432V33.5H125.807V32.5ZM122.932 33V7.40625H121.932V33H122.932ZM122.432 7.90625H131.871V6.90625H122.432V7.90625ZM131.871 7.90625C134.588 7.90625 136.646 8.59837 138.11 9.92174L138.781 9.17982C137.081 7.64382 134.756 6.90625 131.871 6.90625V7.90625ZM138.111 9.92297C139.588 11.2477 140.336 12.9992 140.336 15.2285H141.336C141.336 12.7469 140.49 10.7132 138.779 9.17859L138.111 9.92297ZM140.336 15.2285C140.336 17.6004 139.597 19.3651 138.171 20.5983L138.825 21.3548C140.516 19.8927 141.336 17.8254 141.336 15.2285H140.336ZM138.171 20.5982C136.747 21.8285 134.66 22.4805 131.836 22.4805V23.4805C134.801 23.4805 137.156 22.7965 138.825 21.355L138.171 20.5982ZM131.836 22.4805H125.807V23.4805H131.836V22.4805ZM125.807 20.7207H131.871V19.7207H125.807V20.7207ZM131.871 20.7207C133.748 20.7207 135.266 20.2822 136.349 19.3308L135.69 18.5794C134.851 19.3154 133.604 19.7207 131.871 19.7207V20.7207ZM136.352 19.3285C137.445 18.3555 137.961 16.9737 137.961 15.2637H136.961C136.961 16.7645 136.516 17.8437 135.687 18.5816L136.352 19.3285ZM137.961 15.2637C137.961 13.6256 137.439 12.2679 136.364 11.2451L135.675 11.9697C136.522 12.7751 136.961 13.8549 136.961 15.2637H137.961ZM136.364 11.2451C135.291 10.2242 133.841 9.72076 132.075 9.6837L132.054 10.6835C133.639 10.7167 134.826 11.1625 135.675 11.9697L136.364 11.2451ZM132.064 9.68359H125.807V10.6836H132.064V9.68359ZM125.307 10.1836V20.2207H126.307V10.1836H125.307ZM156.85 26.3203L157.319 26.1485L157.199 25.8203H156.85V26.3203ZM146.127 26.3203V25.8203H145.776L145.657 26.1507L146.127 26.3203ZM143.719 33V33.5H144.07L144.189 33.1696L143.719 33ZM140.238 33L139.771 32.8216L139.512 33.5H140.238V33ZM150.012 7.40625V6.90625H149.667L149.545 7.22788L150.012 7.40625ZM152.965 7.40625L153.432 7.2276L153.309 6.90625H152.965V7.40625ZM162.756 33V33.5H163.482L163.223 32.8213L162.756 33ZM159.293 33L158.823 33.1718L158.943 33.5H159.293V33ZM147.146 23.543L146.676 23.3725L146.433 24.043H147.146V23.543ZM155.848 23.543V24.043H156.562L156.317 23.3719L155.848 23.543ZM151.488 11.5723L151.958 11.4012L151.487 10.1085L151.018 11.4018L151.488 11.5723ZM156.85 25.8203H146.127V26.8203H156.85V25.8203ZM145.657 26.1507L143.248 32.8304L144.189 33.1696L146.597 26.4899L145.657 26.1507ZM143.719 32.5H140.238V33.5H143.719V32.5ZM140.705 33.1784L150.479 7.58462L149.545 7.22788L139.771 32.8216L140.705 33.1784ZM150.012 7.90625H152.965V6.90625H150.012V7.90625ZM152.498 7.5849L162.289 33.1787L163.223 32.8213L153.432 7.2276L152.498 7.5849ZM162.756 32.5H159.293V33.5H162.756V32.5ZM159.763 32.8282L157.319 26.1485L156.38 26.4921L158.823 33.1718L159.763 32.8282ZM147.146 24.043H155.848V23.043H147.146V24.043ZM156.317 23.3719L151.958 11.4012L151.018 11.7434L155.378 23.7141L156.317 23.3719ZM151.018 11.4018L146.676 23.3725L147.617 23.7135L151.958 11.7427L151.018 11.4018Z" fill="#8A8D8F"/>
<path d="M91.0078 48.3945C89.0781 47.8398 87.6719 47.1602 86.7891 46.3555C85.9141 45.543 85.4766 44.543 85.4766 43.3555C85.4766 42.0117 86.0117 40.9023 87.082 40.0273C88.1602 39.1445 89.5586 38.7031 91.2773 38.7031C92.4492 38.7031 93.4922 38.9297 94.4062 39.3828C95.3281 39.8359 96.0391 40.4609 96.5391 41.2578C97.0469 42.0547 97.3008 42.9258 97.3008 43.8711H95.0391C95.0391 42.8398 94.7109 42.0312 94.0547 41.4453C93.3984 40.8516 92.4727 40.5547 91.2773 40.5547C90.168 40.5547 89.3008 40.8008 88.6758 41.293C88.0586 41.7773 87.75 42.4531 87.75 43.3203C87.75 44.0156 88.043 44.6055 88.6289 45.0898C89.2227 45.5664 90.2266 46.0039 91.6406 46.4023C93.0625 46.8008 94.1719 47.2422 94.9688 47.7266C95.7734 48.2031 96.3672 48.7617 96.75 49.4023C97.1406 50.043 97.3359 50.7969 97.3359 51.6641C97.3359 53.0469 96.7969 54.1562 95.7188 54.9922C94.6406 55.8203 93.1992 56.2344 91.3945 56.2344C90.2227 56.2344 89.1289 56.0117 88.1133 55.5664C87.0977 55.1133 86.3125 54.4961 85.7578 53.7148C85.2109 52.9336 84.9375 52.0469 84.9375 51.0547H87.1992C87.1992 52.0859 87.5781 52.9023 88.3359 53.5039C89.1016 54.0977 90.1211 54.3945 91.3945 54.3945C92.582 54.3945 93.4922 54.1523 94.125 53.668C94.7578 53.1836 95.0742 52.5234 95.0742 51.6875C95.0742 50.8516 94.7812 50.207 94.1953 49.7539C93.6094 49.293 92.5469 48.8398 91.0078 48.3945ZM113.355 48.0195C113.355 49.6914 113.074 51.1523 112.512 52.4023C111.949 53.6445 111.152 54.5938 110.121 55.25C109.09 55.9062 107.887 56.2344 106.512 56.2344C105.168 56.2344 103.977 55.9062 102.938 55.25C101.898 54.5859 101.09 53.6445 100.512 52.4258C99.9414 51.1992 99.6484 49.7812 99.6328 48.1719V46.9414C99.6328 45.3008 99.918 43.8516 100.488 42.5938C101.059 41.3359 101.863 40.375 102.902 39.7109C103.949 39.0391 105.145 38.7031 106.488 38.7031C107.855 38.7031 109.059 39.0352 110.098 39.6992C111.145 40.3555 111.949 41.3125 112.512 42.5703C113.074 43.8203 113.355 45.2773 113.355 46.9414V48.0195ZM111.117 46.918C111.117 44.8945 110.711 43.3438 109.898 42.2656C109.086 41.1797 107.949 40.6367 106.488 40.6367C105.066 40.6367 103.945 41.1797 103.125 42.2656C102.312 43.3438 101.895 44.8438 101.871 46.7656V48.0195C101.871 49.9805 102.281 51.5234 103.102 52.6484C103.93 53.7656 105.066 54.3242 106.512 54.3242C107.965 54.3242 109.09 53.7969 109.887 52.7422C110.684 51.6797 111.094 50.1602 111.117 48.1836V46.918ZM123.879 38.9375H126.141V51.0195C126.141 52.6523 125.648 53.9297 124.664 54.8516C123.688 55.7734 122.383 56.2344 120.75 56.2344C119.055 56.2344 117.734 55.8008 116.789 54.9336C115.844 54.0664 115.371 52.8516 115.371 51.2891H117.621C117.621 52.2656 117.887 53.0273 118.418 53.5742C118.957 54.1211 119.734 54.3945 120.75 54.3945C121.68 54.3945 122.43 54.1016 123 53.5156C123.578 52.9297 123.871 52.1094 123.879 51.0547V38.9375ZM141.984 38.9375V50.5391C141.977 52.1484 141.469 53.4648 140.461 54.4883C139.461 55.5117 138.102 56.0859 136.383 56.2109L135.785 56.2344C133.918 56.2344 132.43 55.7305 131.32 54.7227C130.211 53.7148 129.648 52.3281 129.633 50.5625V38.9375H131.859V50.4922C131.859 51.7266 132.199 52.6875 132.879 53.375C133.559 54.0547 134.527 54.3945 135.785 54.3945C137.059 54.3945 138.031 54.0547 138.703 53.375C139.383 52.6953 139.723 51.7383 139.723 50.5039V38.9375H141.984Z" fill="#8A8D8F"/>
<path d="M91.0078 48.3945L91.0773 48.1544L91.0769 48.1543L91.0078 48.3945ZM86.7891 46.3555L86.6189 46.5387L86.6207 46.5402L86.7891 46.3555ZM87.082 40.0273L87.2403 40.2209L87.2404 40.2208L87.082 40.0273ZM94.4062 39.3828L94.2952 39.6068L94.296 39.6072L94.4062 39.3828ZM96.5391 41.2578L96.3273 41.3907L96.3282 41.3922L96.5391 41.2578ZM97.3008 43.8711V44.1211H97.5508V43.8711H97.3008ZM95.0391 43.8711H94.7891V44.1211H95.0391V43.8711ZM94.0547 41.4453L93.887 41.6307L93.8882 41.6318L94.0547 41.4453ZM88.6758 41.293L88.8301 41.4896L88.8305 41.4894L88.6758 41.293ZM88.6289 45.0898L88.4696 45.2825L88.4724 45.2848L88.6289 45.0898ZM91.6406 46.4023L91.5728 46.643L91.5732 46.6431L91.6406 46.4023ZM94.9688 47.7266L94.8389 47.9402L94.8414 47.9417L94.9688 47.7266ZM96.75 49.4023L96.5354 49.5306L96.5366 49.5325L96.75 49.4023ZM95.7188 54.9922L95.871 55.1905L95.8719 55.1898L95.7188 54.9922ZM88.1133 55.5664L88.0114 55.7947L88.0129 55.7954L88.1133 55.5664ZM85.7578 53.7148L85.553 53.8582L85.554 53.8596L85.7578 53.7148ZM84.9375 51.0547V50.8047H84.6875V51.0547H84.9375ZM87.1992 51.0547H87.4492V50.8047H87.1992V51.0547ZM88.3359 53.5039L88.1805 53.6997L88.1827 53.7015L88.3359 53.5039ZM94.1953 49.7539L94.0407 49.9504L94.0424 49.9517L94.1953 49.7539ZM91.0769 48.1543C89.1622 47.6039 87.7988 46.9376 86.9575 46.1707L86.6207 46.5402C87.545 47.3827 88.9941 48.0758 90.9387 48.6348L91.0769 48.1543ZM86.9592 46.1723C86.1348 45.4068 85.7266 44.473 85.7266 43.3555H85.2266C85.2266 44.6129 85.6933 45.6792 86.6189 46.5387L86.9592 46.1723ZM85.7266 43.3555C85.7266 42.0892 86.2261 41.05 87.2403 40.2209L86.9238 39.8338C85.7973 40.7547 85.2266 41.9342 85.2266 43.3555H85.7266ZM87.2404 40.2208C88.2642 39.3825 89.6024 38.9531 91.2773 38.9531V38.4531C89.5147 38.4531 88.0561 38.9066 86.9236 39.8339L87.2404 40.2208ZM91.2773 38.9531C92.4164 38.9531 93.4205 39.1732 94.2952 39.6068L94.5173 39.1588C93.5639 38.6862 92.482 38.4531 91.2773 38.4531V38.9531ZM94.296 39.6072C95.1801 40.0418 95.8542 40.6367 96.3273 41.3907L96.7508 41.1249C96.2239 40.2852 95.4761 39.6301 94.5165 39.1585L94.296 39.6072ZM96.3282 41.3922C96.8105 42.1489 97.0508 42.9734 97.0508 43.8711H97.5508C97.5508 42.8782 97.2833 41.9605 96.7499 41.1235L96.3282 41.3922ZM97.3008 43.6211H95.0391V44.1211H97.3008V43.6211ZM95.2891 43.8711C95.2891 42.7821 94.9398 41.9005 94.2212 41.2588L93.8882 41.6318C94.482 42.162 94.7891 42.8976 94.7891 43.8711H95.2891ZM94.2224 41.2599C93.5061 40.6119 92.5126 40.3047 91.2773 40.3047V40.8047C92.4327 40.8047 93.2907 41.0913 93.887 41.6307L94.2224 41.2599ZM91.2773 40.3047C90.1336 40.3047 89.2047 40.5582 88.5211 41.0966L88.8305 41.4894C89.3969 41.0433 90.2023 40.8047 91.2773 40.8047V40.3047ZM88.5214 41.0963C87.8369 41.6335 87.5 42.3856 87.5 43.3203H88C88 42.5206 88.2802 41.9212 88.8301 41.4896L88.5214 41.0963ZM87.5 43.3203C87.5 44.0977 87.8323 44.7557 88.4696 45.2825L88.7882 44.8972C88.2536 44.4552 88 43.9335 88 43.3203H87.5ZM88.4724 45.2848C89.1068 45.7939 90.1509 46.2423 91.5728 46.643L91.7084 46.1617C90.3022 45.7655 89.3386 45.3389 88.7854 44.8949L88.4724 45.2848ZM91.5732 46.6431C92.9843 47.0385 94.0694 47.4725 94.8389 47.9402L95.0986 47.5129C94.2744 47.0119 93.1407 46.5631 91.7081 46.1616L91.5732 46.6431ZM94.8414 47.9417C95.6191 48.4023 96.1787 48.9337 96.5354 49.5306L96.9646 49.2741C96.5557 48.5898 95.9278 48.004 95.0961 47.5115L94.8414 47.9417ZM96.5366 49.5325C96.8997 50.1281 97.0859 50.8355 97.0859 51.6641H97.5859C97.5859 50.7582 97.3815 49.9578 96.9634 49.2722L96.5366 49.5325ZM97.0859 51.6641C97.0859 52.9708 96.5816 54.0068 95.5656 54.7946L95.8719 55.1898C97.0121 54.3057 97.5859 53.1229 97.5859 51.6641H97.0859ZM95.5665 54.7939C94.5444 55.579 93.1621 55.9844 91.3945 55.9844V56.4844C93.2363 56.4844 94.7368 56.0616 95.871 55.1905L95.5665 54.7939ZM91.3945 55.9844C90.2552 55.9844 89.1959 55.7681 88.2137 55.3374L88.0129 55.7954C89.0619 56.2553 90.1901 56.4844 91.3945 56.4844V55.9844ZM88.2151 55.3381C87.2337 54.9002 86.4865 54.3094 85.9617 53.5701L85.554 53.8596C86.1385 54.6828 86.9616 55.3263 88.0114 55.7947L88.2151 55.3381ZM85.9626 53.5715C85.4464 52.834 85.1875 51.9978 85.1875 51.0547H84.6875C84.6875 52.096 84.9755 53.0332 85.553 53.8582L85.9626 53.5715ZM84.9375 51.3047H87.1992V50.8047H84.9375V51.3047ZM86.9492 51.0547C86.9492 52.1564 87.3586 53.0472 88.1805 53.6997L88.4914 53.3081C87.7977 52.7574 87.4492 52.0154 87.4492 51.0547H86.9492ZM88.1827 53.7015C89.0042 54.3386 90.0831 54.6445 91.3945 54.6445V54.1445C90.1591 54.1445 89.1989 53.8568 88.4891 53.3064L88.1827 53.7015ZM91.3945 54.6445C92.6112 54.6445 93.5838 54.3971 94.277 53.8665L93.973 53.4694C93.4006 53.9076 92.5528 54.1445 91.3945 54.1445V54.6445ZM94.277 53.8665C94.975 53.3322 95.3242 52.5968 95.3242 51.6875H94.8242C94.8242 52.4501 94.5406 53.035 93.973 53.4694L94.277 53.8665ZM95.3242 51.6875C95.3242 50.7855 95.0038 50.0631 94.3482 49.5561L94.0424 49.9517C94.5587 50.3509 94.8242 50.9176 94.8242 51.6875H95.3242ZM94.3499 49.5574C93.7232 49.0644 92.6199 48.6007 91.0773 48.1544L90.9383 48.6347C92.4738 49.079 93.4956 49.5215 94.0407 49.9504L94.3499 49.5574ZM112.512 52.4023L112.739 52.5055L112.74 52.5049L112.512 52.4023ZM102.938 55.25L102.803 55.4607L102.804 55.4614L102.938 55.25ZM100.512 52.4258L100.285 52.5312L100.286 52.5329L100.512 52.4258ZM99.6328 48.1719H99.3828V48.1743L99.6328 48.1719ZM102.902 39.7109L103.037 39.9216V39.9213L102.902 39.7109ZM110.098 39.6992L109.963 39.9099L109.965 39.911L110.098 39.6992ZM112.512 42.5703L112.283 42.6724L112.284 42.6729L112.512 42.5703ZM109.898 42.2656L109.698 42.4154L109.699 42.4161L109.898 42.2656ZM103.125 42.2656L102.926 42.1149L102.925 42.1152L103.125 42.2656ZM101.871 46.7656L101.621 46.7626V46.7656H101.871ZM103.102 52.6484L102.9 52.7957L102.901 52.7973L103.102 52.6484ZM109.887 52.7422L110.086 52.8929L110.087 52.8922L109.887 52.7422ZM111.117 48.1836L111.367 48.1866V48.1836H111.117ZM113.105 48.0195C113.105 49.6636 112.829 51.0883 112.284 52.2998L112.74 52.5049C113.32 51.2164 113.605 49.7192 113.605 48.0195H113.105ZM112.284 52.2992C111.739 53.5024 110.972 54.4119 109.987 55.0391L110.255 55.4609C111.332 54.7756 112.159 53.7866 112.739 52.5055L112.284 52.2992ZM109.987 55.0391C109.001 55.6667 107.845 55.9844 106.512 55.9844V56.4844C107.928 56.4844 109.179 56.1458 110.255 55.4609L109.987 55.0391ZM106.512 55.9844C105.211 55.9844 104.066 55.6673 103.071 55.0386L102.804 55.4614C103.887 56.1452 105.125 56.4844 106.512 56.4844V55.9844ZM103.072 55.0393C102.076 54.4029 101.298 53.4991 100.738 52.3186L100.286 52.5329C100.882 53.7899 101.721 54.769 102.803 55.4607L103.072 55.0393ZM100.738 52.3204C100.186 51.1316 99.8981 49.7499 99.8828 48.1694L99.3828 48.1743C99.3987 49.8126 99.6971 51.2668 100.285 52.5312L100.738 52.3204ZM99.8828 48.1719V46.9414H99.3828V48.1719H99.8828ZM99.8828 46.9414C99.8828 45.3298 100.163 43.9169 100.716 42.697L100.261 42.4905C99.6731 43.7863 99.3828 45.2718 99.3828 46.9414H99.8828ZM100.716 42.697C101.269 41.4778 102.043 40.5566 103.037 39.9216L102.768 39.5003C101.683 40.1934 100.848 41.1941 100.261 42.4905L100.716 42.697ZM103.037 39.9213C104.041 39.2774 105.188 38.9531 106.488 38.9531V38.4531C105.101 38.4531 103.858 38.8007 102.767 39.5005L103.037 39.9213ZM106.488 38.9531C107.813 38.9531 108.968 39.2742 109.963 39.9099L110.232 39.4886C109.149 38.7961 107.898 38.4531 106.488 38.4531V38.9531ZM109.965 39.911C110.965 40.538 111.739 41.4544 112.284 42.6724L112.74 42.4683C112.16 41.1706 111.324 40.1729 110.23 39.4874L109.965 39.911ZM112.284 42.6729C112.829 43.8845 113.105 45.3053 113.105 46.9414H113.605C113.605 45.2494 113.319 43.7561 112.74 42.4677L112.284 42.6729ZM113.105 46.9414V48.0195H113.605V46.9414H113.105ZM111.367 46.918C111.367 44.866 110.956 43.2535 110.098 42.1152L109.699 42.4161C110.466 43.434 110.867 44.9231 110.867 46.918H111.367ZM110.099 42.1159C109.235 40.9614 108.021 40.3867 106.488 40.3867V40.8867C107.877 40.8867 108.937 41.398 109.698 42.4154L110.099 42.1159ZM106.488 40.3867C104.992 40.3867 103.795 40.9632 102.926 42.1149L103.324 42.4163C104.095 41.3961 105.141 40.8867 106.488 40.8867V40.3867ZM102.925 42.1152C102.07 43.2504 101.645 44.8093 101.621 46.7626L102.121 46.7687C102.144 44.8782 102.555 43.4371 103.325 42.4161L102.925 42.1152ZM101.621 46.7656V48.0195H102.121V46.7656H101.621ZM101.621 48.0195C101.621 50.0124 102.038 51.6136 102.9 52.7957L103.304 52.5011C102.525 51.4332 102.121 49.9485 102.121 48.0195H101.621ZM102.901 52.7973C103.778 53.981 104.991 54.5742 106.512 54.5742V54.0742C105.142 54.0742 104.081 53.5503 103.302 52.4996L102.901 52.7973ZM106.512 54.5742C108.034 54.5742 109.237 54.0169 110.086 52.8929L109.687 52.5915C108.943 53.5768 107.895 54.0742 106.512 54.0742V54.5742ZM110.087 52.8922C110.928 51.771 111.343 50.1916 111.367 48.1866L110.867 48.1806C110.844 50.1288 110.44 51.5883 109.687 52.5922L110.087 52.8922ZM111.367 48.1836V46.918H110.867V48.1836H111.367ZM123.879 38.9375V38.6875H123.629V38.9375H123.879ZM126.141 38.9375H126.391V38.6875H126.141V38.9375ZM124.664 54.8516L124.493 54.6691L124.492 54.6698L124.664 54.8516ZM115.371 51.2891V51.0391H115.121V51.2891H115.371ZM117.621 51.2891H117.871V51.0391H117.621V51.2891ZM118.418 53.5742L118.239 53.7484L118.24 53.7497L118.418 53.5742ZM123 53.5156L122.822 53.34L122.821 53.3413L123 53.5156ZM123.879 51.0547L124.129 51.0565V51.0547H123.879ZM123.879 39.1875H126.141V38.6875H123.879V39.1875ZM125.891 38.9375V51.0195H126.391V38.9375H125.891ZM125.891 51.0195C125.891 52.5989 125.417 53.8042 124.493 54.6691L124.835 55.034C125.88 54.0551 126.391 52.7058 126.391 51.0195H125.891ZM124.492 54.6698C123.572 55.5388 122.334 55.9844 120.75 55.9844V56.4844C122.432 56.4844 123.803 56.0081 124.836 55.0334L124.492 54.6698ZM120.75 55.9844C119.097 55.9844 117.844 55.5621 116.958 54.7494L116.62 55.1178C117.625 56.0394 119.013 56.4844 120.75 56.4844V55.9844ZM116.958 54.7494C116.075 53.9396 115.621 52.798 115.621 51.2891H115.121C115.121 52.9051 115.612 54.1932 116.62 55.1178L116.958 54.7494ZM115.371 51.5391H117.621V51.0391H115.371V51.5391ZM117.371 51.2891C117.371 52.3116 117.65 53.1428 118.239 53.7484L118.597 53.4C118.123 52.9119 117.871 52.2196 117.871 51.2891H117.371ZM118.24 53.7497C118.84 54.3582 119.69 54.6445 120.75 54.6445V54.1445C119.779 54.1445 119.074 53.884 118.596 53.3987L118.24 53.7497ZM120.75 54.6445C121.737 54.6445 122.555 54.3311 123.179 53.69L122.821 53.3413C122.304 53.872 121.622 54.1445 120.75 54.1445V54.6445ZM123.178 53.6912C123.814 53.0469 124.121 52.1572 124.129 51.0565L123.629 51.0528C123.621 52.0615 123.343 52.8124 122.822 53.34L123.178 53.6912ZM124.129 51.0547V38.9375H123.629V51.0547H124.129ZM141.984 38.9375H142.234V38.6875H141.984V38.9375ZM141.984 50.5391L142.234 50.5403V50.5391H141.984ZM140.461 54.4883L140.283 54.3129L140.282 54.3136L140.461 54.4883ZM136.383 56.2109L136.393 56.4609L136.401 56.4603L136.383 56.2109ZM135.785 56.2344V56.4846L135.795 56.4842L135.785 56.2344ZM129.633 50.5625H129.383V50.5647L129.633 50.5625ZM129.633 38.9375V38.6875H129.383V38.9375H129.633ZM131.859 38.9375H132.109V38.6875H131.859V38.9375ZM132.879 53.375L132.701 53.5508L132.702 53.5518L132.879 53.375ZM138.703 53.375L138.526 53.1982L138.525 53.1992L138.703 53.375ZM139.723 38.9375V38.6875H139.473V38.9375H139.723ZM141.734 38.9375V50.5391H142.234V38.9375H141.734ZM141.734 50.5378C141.727 52.0906 141.239 53.3417 140.283 54.3129L140.639 54.6637C141.698 53.588 142.226 52.2063 142.234 50.5403L141.734 50.5378ZM140.282 54.3136C139.333 55.2848 138.036 55.8401 136.365 55.9616L136.401 56.4603C138.168 56.3318 139.589 55.7386 140.64 54.663L140.282 54.3136ZM136.373 55.9611L135.775 55.9846L135.795 56.4842L136.393 56.4607L136.373 55.9611ZM135.785 55.9844C133.964 55.9844 132.541 55.494 131.488 54.5376L131.152 54.9077C132.318 55.9669 133.872 56.4844 135.785 56.4844V55.9844ZM131.488 54.5376C130.44 53.585 129.898 52.2697 129.883 50.5603L129.383 50.5647C129.399 52.3865 129.982 53.8446 131.152 54.9077L131.488 54.5376ZM129.883 50.5625V38.9375H129.383V50.5625H129.883ZM129.633 39.1875H131.859V38.6875H129.633V39.1875ZM131.609 38.9375V50.4922H132.109V38.9375H131.609ZM131.609 50.4922C131.609 51.7733 131.963 52.8045 132.701 53.5508L133.057 53.1992C132.435 52.5705 132.109 51.6798 132.109 50.4922H131.609ZM132.702 53.5518C133.442 54.2915 134.482 54.6445 135.785 54.6445V54.1445C134.572 54.1445 133.675 53.8179 133.056 53.1982L132.702 53.5518ZM135.785 54.6445C137.102 54.6445 138.148 54.2921 138.881 53.5508L138.525 53.1992C137.914 53.8172 137.015 54.1445 135.785 54.1445V54.6445ZM138.88 53.5518C139.619 52.8129 139.973 51.7849 139.973 50.5039H139.473C139.473 51.6917 139.147 52.5777 138.526 53.1982L138.88 53.5518ZM139.973 50.5039V38.9375H139.473V50.5039H139.973ZM139.723 39.1875H141.984V38.6875H139.723V39.1875Z" fill="#8A8D8F"/>
<path d="M60 2H4C2.89543 2 2 2.89543 2 4V60C2 61.1046 2.89543 62 4 62H60C61.1046 62 62 61.1046 62 60V4C62 2.89543 61.1046 2 60 2Z" fill="white" stroke="#8A8D8F" stroke-width="4"/>
<path d="M32 60C47.464 60 60 47.464 60 32C60 16.536 47.464 4 32 4C16.536 4 4 16.536 4 32C4 47.464 16.536 60 32 60Z" stroke="#8A8D8F" stroke-width="4"/>
<path d="M2.5 32C10.5 40.3333 33.4 52 61 32" stroke="#8A8D8F" stroke-width="4"/>
<path d="M7.92395 39.7372C9.88788 41.7625 11.4855 43.7908 13.5542 45.6526C14.2807 46.3064 16.7037 47.5124 16.2624 47.2918C15.3041 46.8126 7.60716 43.1537 9.34933 41.1626C9.5865 40.8916 11.3092 42.8899 11.7725 42.9444C13.5139 43.1492 15.203 44.2272 16.9039 44.2272C19.1673 44.2272 23.5498 45.9735 24.6009 48.0757" stroke="#8A8D8F" stroke-width="3" stroke-linecap="round"/>
<path d="M22.0352 44.2272C18.7024 44.8104 17.3177 43.1099 14.3381 42.9443C12.8135 42.8596 13.6405 42.3862 12.7346 41.6615C11.9149 41.0058 12.6186 42.1886 13.0553 42.4455C17.6789 45.1652 21.7733 48.7171 27.4873 48.7171C31.6835 48.7171 38.9592 50.0703 42.5607 47.755C44.5042 46.5056 52.182 43.2738 52.182 41.6615" stroke="#8A8D8F" stroke-width="5" stroke-linecap="round"/>
<path d="M54.1063 39.7372C45.1173 46.5471 36.8688 49.5191 25.5987 47.4699C22.1222 46.8379 25.443 46.1515 27.3091 46.1515C29.2928 46.1515 31.2764 46.1515 33.2601 46.1515C35.6295 46.1515 42.5607 46.9773 42.5607 43.5858" stroke="#8A8D8F" stroke-width="5" stroke-linecap="round"/>
<path d="M56.672 38.4544C54.1178 41.0885 53.2764 44.136 50.8992 46.7929C49.092 48.8128 47.1424 50.6559 45.1264 52.5657C42.2377 55.3024 36.7983 57.0557 32.9394 57.0557C29.4728 57.0557 24.6711 57.4966 21.8927 55.2739C20.7797 54.3835 18.947 54.3237 17.6878 53.0646C16.287 51.6637 15.2468 49.9821 13.8393 48.5746C12.9445 47.6798 11.6457 47.0225 10.6322 46.0089C9.73015 45.1069 12.6547 47.1137 13.6968 47.5769C16.5816 48.859 19.4724 52.3772 22.6767 52.5657C26.9219 52.8154 31.2528 52.5657 35.5051 52.5657C39.7008 52.5657 41.1696 48.9837 45.7679 51.2829" stroke="#8A8D8F" stroke-width="5" stroke-linecap="round"/>
<path d="M12 28.016C14 27.8493 18.7 28.916 21.5 34.516" stroke="#8A8D8F" stroke-width="4"/>
<path d="M48.5 28.016C46.5 27.8493 41.8 28.916 39 34.516" stroke="#8A8D8F" stroke-width="4"/>
</svg>
